<svg width="550" height="149" viewBox="0 0 550 149" fill="none" xmlns="http://www.w3.org/2000/svg">
<rect width="550" height="149" fill="white"/>
<path d="M69.4925 20.4674H84.4214C116.226 20.4674 133.914 38.6417 133.914 75.4771C133.914 112.15 116.389 130 84.4214 130H69.4925C37.5252 130 20 112.15 20 75.4771C20 38.6417 37.6875 20.4674 69.4925 20.4674ZM84.4214 39.6153H69.4925C48.3974 39.6153 39.1479 50.3251 39.1479 75.4771C39.1479 100.467 48.2351 110.852 69.4925 110.852H84.4214C105.517 110.852 114.604 100.467 114.604 75.3148C114.604 50.3251 105.517 39.6153 84.4214 39.6153Z" fill="#1E1E1E"/>
<path d="M195.795 41.8871L161.069 130H139.974L178.432 32.6376C182.489 22.4146 189.953 18.5201 201.474 18.5201C212.833 18.5201 220.298 22.4146 224.192 32.6376L261.19 130H239.932L206.667 41.8871C205.693 39.2907 203.908 38.1548 201.312 38.1548C198.716 38.1548 196.931 39.2907 195.795 41.8871Z" fill="#1E1E1E"/>
<path d="M306.493 20.4674H361.989V39.6153H305.843C295.945 39.6153 291.564 44.9702 291.564 52.5969C291.564 59.25 294.971 65.5786 307.791 65.5786H333.429C363.287 65.5786 370.265 82.1302 370.265 97.8704C370.265 116.369 360.366 130 335.377 130H274.363V110.852H336.026C346.411 110.852 351.117 105.173 351.117 97.2213C351.117 90.0814 347.385 83.5906 333.916 83.5906H308.44C279.231 83.5906 272.416 67.2013 272.416 51.9478C272.416 33.7735 282.152 20.4674 306.493 20.4674Z" fill="#1E1E1E"/>
<path d="M391.543 20.4674H410.691V130H391.543V20.4674Z" fill="#1E1E1E"/>
<path d="M466.228 20.4674H521.724V39.6153H465.579C455.68 39.6153 451.299 44.9702 451.299 52.5969C451.299 59.25 454.706 65.5786 467.526 65.5786H493.165C523.022 65.5786 530 82.1302 530 97.8704C530 116.369 520.101 130 495.112 130H434.098V110.852H495.761C506.146 110.852 510.852 105.173 510.852 97.2213C510.852 90.0814 507.12 83.5906 493.651 83.5906H468.175C438.966 83.5906 432.151 67.2013 432.151 51.9478C432.151 33.7735 441.887 20.4674 466.228 20.4674Z" fill="#1E1E1E"/>
<circle cx="200.746" cy="111.116" r="18.8842" fill="#FF5E00"/>
</svg>
