<svg width="98" height="26" viewBox="0 0 98 26" fill="none" xmlns="http://www.w3.org/2000/svg">
<path d="M24.048 13.032C24.048 20.448 19.116 25.848 12.024 25.848C4.932 25.848 0 20.448 0 13.032C0 5.616 4.932 0.216003 12.024 0.216003C19.116 0.216003 24.048 5.616 24.048 13.032ZM3.204 13.032C3.204 18.828 6.768 22.968 12.024 22.968C17.28 22.968 20.844 18.828 20.844 13.032C20.844 7.236 17.28 3.096 12.024 3.096C6.768 3.096 3.204 7.236 3.204 13.032Z" fill="black"/>
<path d="M48.6897 17.388H51.9297C52.1817 20.772 54.8097 23.004 58.6617 23.004C62.0457 23.004 64.4577 21.456 64.4577 18.72C64.4577 15.588 61.3617 14.94 57.5457 14.292C53.4777 13.608 49.3017 12.276 49.3017 7.38C49.3017 3.096 52.7937 0.216003 57.9057 0.216003C63.5217 0.216003 66.9777 3.348 67.2657 7.884H64.0257C63.6657 4.968 61.3257 3.06 57.9057 3.06C54.6297 3.06 52.4337 4.5 52.4337 7.2C52.4337 10.224 55.4937 10.836 59.2737 11.484C63.3777 12.168 67.5897 13.536 67.5897 18.432C67.5897 22.788 63.9177 25.848 58.6257 25.848C52.4697 25.848 48.8697 22.356 48.6897 17.388Z" fill="black"/>
<path d="M71.5649 25.632V0.432003H74.6969V25.632H71.5649Z" fill="black"/>
<path d="M78.5725 17.388H81.8125C82.0645 20.772 84.6925 23.004 88.5445 23.004C91.9285 23.004 94.3405 21.456 94.3405 18.72C94.3405 15.588 91.2445 14.94 87.4285 14.292C83.3605 13.608 79.1845 12.276 79.1845 7.38C79.1845 3.096 82.6765 0.216003 87.7885 0.216003C93.4045 0.216003 96.8605 3.348 97.1485 7.884H93.9085C93.5485 4.968 91.2085 3.06 87.7885 3.06C84.5125 3.06 82.3165 4.5 82.3165 7.2C82.3165 10.224 85.3765 10.836 89.1565 11.484C93.2605 12.168 97.4725 13.536 97.4725 18.432C97.4725 22.788 93.8005 25.848 88.5085 25.848C82.3525 25.848 78.7525 22.356 78.5725 17.388Z" fill="black"/>
<path d="M36.3447 17.532C35.5197 17.532 34.7663 17.3309 34.0845 16.9286C33.4027 16.5195 32.8572 15.9741 32.4482 15.2922C32.0459 14.6104 31.8447 13.857 31.8447 13.032C31.8447 12.2002 32.0459 11.4468 32.4482 10.7718C32.8572 10.09 33.4027 9.54792 34.0845 9.14565C34.7663 8.73656 35.5197 8.53201 36.3447 8.53201C37.1766 8.53201 37.93 8.73656 38.605 9.14565C39.2868 9.54792 39.8288 10.09 40.2311 10.7718C40.6402 11.4468 40.8447 12.2002 40.8447 13.032C40.8447 13.857 40.6402 14.6104 40.2311 15.2922C39.8288 15.9741 39.2868 16.5195 38.605 16.9286C37.93 17.3309 37.1766 17.532 36.3447 17.532Z" fill="#FF5E00"/>
<path d="M45.9567 10.98L45.9567 25.416H42.8247L42.8247 10.8C42.8247 5.58 40.7367 2.88 36.3807 2.88C31.9527 2.88 29.8647 5.58 29.8647 10.8L29.8647 25.416H26.7327L26.7327 10.98C26.7327 3.78 30.0807 -5.50763e-07 36.3807 0C42.6807 5.50764e-07 45.9567 3.78 45.9567 10.98Z" fill="black"/>
</svg>
